<svg width="960" height="642" viewBox="0 0 960 642" fill="none" xmlns="http://www.w3.org/2000/svg">
<rect width="960" height="642" fill="#CCEFF6"/>
<path d="M708.711 224.848V237.741H528.396V224.848H708.711ZM563.568 231.829C563.567 231.233 563.392 230.651 563.063 230.156C562.734 229.661 562.267 229.275 561.721 229.047C561.175 228.819 560.573 228.76 559.994 228.876C559.414 228.992 558.881 229.279 558.463 229.701C558.045 230.122 557.76 230.659 557.645 231.243C557.529 231.827 557.588 232.433 557.814 232.983C558.041 233.534 558.423 234.004 558.915 234.336C559.406 234.667 559.984 234.844 560.575 234.845C560.97 234.847 561.362 234.77 561.727 234.619C562.092 234.468 562.424 234.245 562.703 233.963C562.982 233.682 563.203 233.348 563.354 232.98C563.504 232.612 563.58 232.217 563.577 231.819L563.568 231.829ZM551.797 231.829C551.797 231.233 551.621 230.651 551.292 230.156C550.964 229.661 550.497 229.275 549.951 229.047C549.405 228.819 548.804 228.76 548.224 228.876C547.644 228.992 547.112 229.279 546.693 229.7C546.275 230.121 545.99 230.657 545.875 231.241C545.759 231.825 545.818 232.431 546.043 232.982C546.269 233.532 546.651 234.003 547.142 234.335C547.633 234.666 548.211 234.844 548.802 234.845C549.197 234.847 549.589 234.77 549.954 234.619C550.32 234.468 550.652 234.245 550.931 233.964C551.21 233.682 551.432 233.348 551.582 232.98C551.732 232.612 551.809 232.217 551.807 231.819L551.797 231.829ZM540.024 231.829C540.024 231.233 539.848 230.651 539.519 230.156C539.19 229.661 538.723 229.275 538.177 229.047C537.631 228.819 537.03 228.76 536.45 228.876C535.87 228.992 535.338 229.279 534.92 229.701C534.501 230.122 534.217 230.659 534.101 231.243C533.986 231.827 534.045 232.433 534.271 232.983C534.497 233.534 534.88 234.004 535.371 234.336C535.863 234.667 536.44 234.844 537.032 234.845C537.427 234.848 537.819 234.772 538.186 234.621C538.552 234.47 538.885 234.248 539.165 233.966C539.445 233.685 539.667 233.35 539.818 232.981C539.969 232.613 540.045 232.218 540.043 231.819L540.024 231.829Z" fill="#006B99"/>
<path d="M672.756 494.265H475.993L451.247 476.608L377.224 423.793L377.335 423.293C378.396 423.624 379.502 423.793 380.614 423.793H566.32C568.272 423.795 570.191 423.275 571.879 422.285L672.756 494.265ZM565.604 467.185H618.53L602.981 456.093L568.447 431.444H408.695L422.535 441.323L458.777 467.185H565.604ZM522.435 487.488H599.232L580.085 473.828H503.096L522.242 487.488H522.435Z" fill="#CCEFF6"/>
<path d="M618.529 467.185H565.604V466.872L551.175 456.577H602.646L602.98 456.094L618.529 467.185Z" fill="#CCEFF6"/>
<path d="M481.382 441.323L467.542 431.443H568.446L602.98 456.093L602.645 456.576H551.175L565.603 466.871V467.185H458.764L422.522 441.323H481.382Z" fill="#CCEFF6"/>
<path d="M599.231 487.488H522.434H522.241L503.095 473.828H579.892H580.085L599.231 487.488Z" fill="#F7CEDC"/>
<path d="M577.369 346.051V412.668C577.369 414.13 577.083 415.577 576.528 416.928C575.972 418.278 575.158 419.505 574.132 420.538C573.106 421.571 571.888 422.391 570.547 422.949C569.206 423.508 567.77 423.794 566.319 423.793H380.613C379.163 423.794 377.727 423.507 376.387 422.948C375.047 422.389 373.83 421.57 372.804 420.537C371.779 419.503 370.966 418.277 370.411 416.926C369.857 415.576 369.572 414.129 369.573 412.668V279.442C369.573 276.49 370.736 273.66 372.806 271.573C374.876 269.486 377.685 268.313 380.613 268.311H566.319C567.77 268.311 569.207 268.598 570.548 269.158C571.889 269.717 573.108 270.537 574.134 271.571C575.16 272.605 575.974 273.833 576.529 275.184C577.084 276.536 577.37 277.984 577.369 279.446V346.051ZM568.96 406.583V285.517C568.96 283.198 568.046 280.975 566.419 279.336C564.792 277.696 562.586 276.776 560.285 276.776H386.649C384.348 276.776 382.142 277.696 380.515 279.336C378.889 280.975 377.975 283.198 377.975 285.517V406.583C377.975 408.901 378.889 411.125 380.515 412.764C382.142 414.403 384.348 415.324 386.649 415.324H560.283C562.584 415.324 564.79 414.403 566.417 412.764C568.044 411.125 568.957 408.901 568.957 406.583H568.96Z" fill="#CCEFF6"/>
<path d="M568.958 285.517V322.943H567.31V322.314C567.31 311.631 561.339 306.41 554.041 306.41H553.26C552.788 306.411 552.336 306.223 552.002 305.888C551.667 305.553 551.479 305.098 551.477 304.623V301.802C552.619 301.234 553.582 300.356 554.255 299.266C554.928 298.176 555.285 296.918 555.286 295.635V291.803C555.286 289.978 554.567 288.228 553.286 286.937C552.006 285.647 550.269 284.922 548.458 284.922C546.647 284.922 544.91 285.647 543.629 286.937C542.348 288.228 541.629 289.978 541.629 291.803V295.635C541.63 296.918 541.987 298.176 542.66 299.266C543.333 300.356 544.296 301.234 545.438 301.802V304.633C545.437 305.107 545.25 305.56 544.918 305.896C544.584 306.234 544.132 306.427 543.658 306.432C541.627 306.363 539.604 306.721 537.718 307.483C535.832 308.246 534.124 309.396 532.704 310.861C531.284 312.325 530.182 314.072 529.469 315.99C528.757 317.908 528.448 319.954 528.564 321.999H528.396V276.781H560.284C562.583 276.781 564.789 277.701 566.416 279.339C568.042 280.977 568.957 283.199 568.958 285.517Z" fill="#F7CEDC"/>
<path d="M567.11 411.439L567.481 411.465C566.688 412.653 565.617 413.625 564.363 414.297C563.11 414.969 561.711 415.32 560.291 415.319H528.396V414.348H528.564C528.448 412.303 528.757 410.257 529.469 408.339C530.182 406.421 531.284 404.674 532.704 403.21C534.124 401.745 535.832 400.595 537.718 399.832C539.604 399.07 541.627 398.712 543.658 398.781C543.891 398.782 544.123 398.737 544.339 398.647C544.555 398.558 544.752 398.426 544.917 398.26C545.083 398.094 545.214 397.897 545.304 397.68C545.394 397.463 545.441 397.229 545.441 396.994V394.163C544.298 393.596 543.336 392.717 542.662 391.627C541.989 390.537 541.632 389.279 541.631 387.996V384.167C541.631 382.342 542.351 380.591 543.631 379.301C544.912 378.01 546.649 377.285 548.46 377.285C550.271 377.285 552.008 378.01 553.289 379.301C554.569 380.591 555.289 382.342 555.289 384.167V387.996C555.288 389.279 554.931 390.537 554.258 391.627C553.585 392.717 552.622 393.596 551.479 394.163V396.999C551.481 397.474 551.67 397.929 552.004 398.264C552.338 398.599 552.791 398.787 553.262 398.786H554.043C560.561 398.779 566.016 402.948 567.11 411.439Z" fill="#006B99"/>
<path d="M567.312 368.08V368.986H528.396V367.74H528.564C528.449 365.696 528.757 363.65 529.47 361.733C530.183 359.815 531.285 358.068 532.705 356.604C534.125 355.14 535.832 353.989 537.718 353.227C539.604 352.465 541.627 352.107 543.658 352.176C544.131 352.176 544.585 351.986 544.92 351.65C545.253 351.315 545.44 350.861 545.441 350.387V347.558C544.298 346.99 543.335 346.112 542.662 345.021C541.989 343.931 541.632 342.673 541.631 341.388V337.559C541.631 335.734 542.351 333.984 543.631 332.694C544.912 331.403 546.649 330.678 548.46 330.678C550.271 330.678 552.008 331.403 553.289 332.694C554.569 333.984 555.289 335.734 555.289 337.559V341.396C555.288 342.68 554.931 343.938 554.258 345.029C553.585 346.119 552.622 346.998 551.479 347.566V350.38C551.481 350.855 551.67 351.31 552.004 351.645C552.338 351.981 552.791 352.169 553.262 352.169H554.043C561.341 352.176 567.312 357.404 567.312 368.08Z" fill="#006B99"/>
<path d="M567.312 322.323V322.952H528.396V321.981H528.564C528.451 319.938 528.761 317.893 529.475 315.978C530.188 314.062 531.29 312.317 532.71 310.854C534.13 309.391 535.837 308.243 537.722 307.481C539.607 306.72 541.628 306.362 543.658 306.431C544.131 306.43 544.584 306.242 544.92 305.907C545.252 305.572 545.439 305.118 545.441 304.644V301.801C544.298 301.234 543.336 300.355 542.663 299.265C541.989 298.175 541.632 296.918 541.631 295.634V291.802C541.631 289.977 542.351 288.227 543.631 286.937C544.912 285.646 546.649 284.921 548.46 284.921C550.271 284.921 552.008 285.646 553.289 286.937C554.569 288.227 555.289 289.977 555.289 291.802V295.634C555.288 296.918 554.931 298.175 554.257 299.265C553.584 300.355 552.622 301.234 551.479 301.801V304.632C551.481 305.107 551.67 305.562 552.004 305.897C552.338 306.232 552.791 306.42 553.262 306.419H554.043C561.341 306.431 567.312 311.647 567.312 322.323Z" fill="#006B99"/>
<path d="M548.811 228.811C549.403 228.81 549.982 228.985 550.475 229.316C550.968 229.646 551.352 230.117 551.58 230.667C551.807 231.218 551.867 231.825 551.752 232.41C551.637 232.995 551.352 233.532 550.934 233.954C550.515 234.376 549.982 234.664 549.402 234.78C548.821 234.896 548.219 234.836 547.673 234.608C547.126 234.379 546.659 233.992 546.33 233.496C546.002 232.999 545.827 232.416 545.828 231.82C545.829 231.022 546.143 230.258 546.703 229.694C547.262 229.13 548.02 228.813 548.811 228.811Z" fill="#FFCEB6"/>
<path d="M537.041 228.811C537.633 228.81 538.212 228.986 538.704 229.317C539.197 229.648 539.581 230.118 539.808 230.669C540.035 231.22 540.094 231.826 539.979 232.411C539.864 232.996 539.579 233.533 539.16 233.955C538.742 234.377 538.209 234.664 537.628 234.78C537.048 234.896 536.446 234.836 535.9 234.607C535.353 234.379 534.886 233.992 534.558 233.496C534.23 232.999 534.055 232.416 534.056 231.82C534.056 231.022 534.371 230.257 534.931 229.693C535.491 229.129 536.25 228.812 537.041 228.811V228.811Z" fill="#CCEFF6"/>
<path d="M498.503 139.256V152.161H250.898V139.256H498.503ZM286.09 146.239C286.089 145.643 285.914 145.061 285.585 144.566C285.256 144.071 284.789 143.685 284.243 143.457C283.696 143.23 283.095 143.17 282.516 143.286C281.936 143.403 281.403 143.69 280.985 144.111C280.567 144.532 280.282 145.069 280.167 145.653C280.051 146.238 280.11 146.843 280.336 147.394C280.563 147.944 280.945 148.415 281.437 148.746C281.928 149.077 282.506 149.254 283.097 149.255C283.49 149.256 283.88 149.178 284.243 149.027C284.607 148.875 284.937 148.653 285.215 148.373C285.493 148.093 285.713 147.76 285.863 147.394C286.013 147.028 286.09 146.635 286.09 146.239V146.239ZM274.319 146.239C274.319 145.644 274.143 145.061 273.814 144.566C273.486 144.071 273.019 143.685 272.473 143.458C271.927 143.23 271.326 143.17 270.746 143.286C270.166 143.402 269.634 143.689 269.215 144.11C268.797 144.531 268.512 145.068 268.397 145.652C268.281 146.236 268.34 146.841 268.565 147.392C268.791 147.943 269.173 148.413 269.664 148.745C270.155 149.076 270.733 149.254 271.324 149.255C271.718 149.256 272.107 149.179 272.471 149.027C272.835 148.876 273.165 148.654 273.443 148.374C273.721 148.094 273.942 147.761 274.092 147.395C274.243 147.028 274.32 146.636 274.319 146.239V146.239ZM262.546 146.239C262.546 145.643 262.37 145.061 262.041 144.566C261.712 144.071 261.245 143.685 260.699 143.457C260.153 143.23 259.552 143.17 258.972 143.286C258.392 143.403 257.86 143.69 257.442 144.111C257.023 144.532 256.739 145.069 256.623 145.653C256.508 146.238 256.567 146.843 256.793 147.394C257.019 147.944 257.402 148.415 257.893 148.746C258.385 149.077 258.962 149.254 259.554 149.255C259.947 149.256 260.336 149.178 260.7 149.027C261.063 148.875 261.393 148.653 261.671 148.373C261.949 148.093 262.169 147.76 262.32 147.394C262.47 147.028 262.547 146.635 262.546 146.239V146.239Z" fill="#006B99"/>
<path d="M489.968 325.4V331.322L484.149 328.409C484.747 327.413 485.608 326.604 486.635 326.073C487.663 325.542 488.817 325.309 489.968 325.4Z" fill="#FFCEB6"/>
<path d="M467.543 431.443L481.383 441.323H422.523L408.682 431.443H467.543Z" fill="#CCEFF6"/>
<path d="M441.308 204.859C441.522 205.015 441.7 205.215 441.832 205.446C441.963 205.677 442.045 205.933 442.071 206.198C442.097 206.463 442.067 206.731 441.984 206.983C441.9 207.235 441.764 207.467 441.585 207.663L436.284 213.306L430.803 219.133L420.495 230.115L419.887 230.2C419.651 229.939 419.38 229.714 419.08 229.53C418.421 229.111 417.666 228.872 416.887 228.836V228.819L430.892 213.704L438.843 205.104C439.018 204.914 439.23 204.762 439.466 204.658C439.702 204.555 439.957 204.501 440.214 204.502C440.607 204.503 440.989 204.628 441.308 204.859Z" fill="#006B99"/>
<path d="M429.383 300.903L435.711 304.081C434.475 307.954 429.379 306.682 429.379 306.682L429.383 300.903Z" fill="#FFCEB6"/>
<path d="M426.584 184.444V190.369L420.772 187.455C421.369 186.46 422.228 185.652 423.255 185.121C424.281 184.589 425.433 184.355 426.584 184.444V184.444Z" fill="#FFCEB6"/>
<path d="M422.514 239.055C423.422 241.59 420.622 244.154 420.622 244.154C418.478 242.671 414.064 244.696 412.794 247.119C408.938 246.594 409.035 244.569 410.384 242.663C411.306 241.423 412.457 240.373 413.772 239.57C416.789 237.742 421.605 236.523 422.514 239.055Z" fill="#FFCEB6"/>
<path d="M419.486 234.522C422.918 236.482 422.513 239.055 422.513 239.055C421.604 236.523 416.788 237.742 413.769 239.565C412.453 240.368 411.303 241.418 410.381 242.659L409.942 242.36C409.59 242.341 409.241 242.287 408.899 242.2C406.058 241.488 407.747 238.895 407.865 238.708C409.378 238.129 410.81 237.357 412.128 236.411C412.508 236.116 412.83 235.751 413.077 235.336L413.354 235.377C413.354 235.377 417.19 233.209 419.486 234.522Z" fill="#FFCEB6"/>
<path d="M412.793 247.114C414.063 244.686 418.477 242.666 420.621 244.149C422.766 245.633 421.554 249.673 416.477 255.469C415.259 257.08 413.699 258.396 411.911 259.32C410.122 260.245 408.151 260.754 406.142 260.811L402.528 268.209V268.311H383.926V268.214L391.688 251.647L398.892 237.807C399.357 237.047 400.025 236.433 400.82 236.037C403.993 234.316 407.428 233.142 410.986 232.563C411.371 232.538 411.758 232.578 412.13 232.682C412.389 232.761 412.626 232.901 412.822 233.089C413.018 233.277 413.168 233.508 413.26 233.765C413.353 234.021 413.384 234.296 413.353 234.567C413.321 234.838 413.228 235.097 413.079 235.326C412.833 235.741 412.511 236.106 412.13 236.401C410.812 237.347 409.38 238.119 407.868 238.698V238.698C407.405 238.885 406.969 239.063 406.581 239.208L406.648 239.393L394.642 252.189C394.463 252.384 394.327 252.615 394.243 252.867C394.16 253.119 394.13 253.386 394.156 253.65C394.183 253.914 394.264 254.17 394.395 254.4C394.527 254.631 394.705 254.83 394.919 254.986C395.24 255.217 395.625 255.341 396.02 255.34C396.277 255.34 396.532 255.287 396.768 255.183C397.004 255.08 397.216 254.928 397.391 254.738L408.6 242.792L408.901 242.19C409.243 242.278 409.592 242.331 409.945 242.35L410.381 242.649C409.034 244.565 408.942 246.59 412.793 247.114Z" fill="#FFCEB6"/>
<path d="M419.89 230.209C421.463 232.04 419.488 234.522 419.488 234.522C417.191 233.208 413.365 235.369 413.365 235.369L413.088 235.328C413.236 235.1 413.33 234.84 413.361 234.569C413.393 234.298 413.361 234.023 413.269 233.767C413.177 233.51 413.027 233.279 412.83 233.091C412.634 232.903 412.397 232.763 412.138 232.684C411.766 232.58 411.379 232.54 410.994 232.565V232.565C411.59 231.498 412.442 230.599 413.472 229.95C414.502 229.302 415.677 228.924 416.89 228.852C417.668 228.888 418.424 229.127 419.083 229.546C419.382 229.728 419.654 229.951 419.89 230.209Z" fill="#FFCEB6"/>
<path d="M419.084 414.345V415.317H386.649C385.241 415.319 383.854 414.975 382.608 414.313C381.363 413.652 380.297 412.693 379.503 411.522L379.628 411.437C380.722 402.938 386.179 398.777 392.688 398.777H393.478C393.948 398.777 394.399 398.588 394.732 398.253C395.065 397.918 395.251 397.464 395.251 396.99V394.158C394.11 393.591 393.149 392.712 392.477 391.622C391.805 390.532 391.45 389.274 391.452 387.991V384.162C391.434 383.248 391.598 382.339 391.934 381.489C392.269 380.64 392.77 379.866 393.405 379.213C394.041 378.56 394.799 378.042 395.636 377.688C396.473 377.334 397.371 377.152 398.279 377.152C399.187 377.152 400.085 377.334 400.922 377.688C401.759 378.042 402.517 378.56 403.153 379.213C403.788 379.866 404.289 380.64 404.624 381.489C404.959 382.339 405.123 383.248 405.106 384.162V387.991C405.106 389.275 404.75 390.533 404.077 391.623C403.404 392.713 402.442 393.591 401.299 394.158V396.999C401.3 397.473 401.487 397.927 401.819 398.262C402.152 398.597 402.603 398.786 403.073 398.786C405.104 398.716 407.128 399.073 409.015 399.835C410.903 400.597 412.611 401.747 414.032 403.212C415.454 404.677 416.556 406.424 417.269 408.342C417.983 410.26 418.292 412.308 418.176 414.353L419.084 414.345Z" fill="#006B99"/>
<path d="M419.084 368.986V414.345H418.178C418.294 412.3 417.985 410.253 417.272 408.335C416.558 406.416 415.456 404.669 414.035 403.204C412.613 401.74 410.905 400.589 409.018 399.827C407.131 399.065 405.107 398.708 403.075 398.779C402.605 398.778 402.154 398.59 401.822 398.255C401.489 397.92 401.302 397.465 401.302 396.992V394.161C402.444 393.593 403.406 392.715 404.079 391.625C404.752 390.535 405.109 389.277 405.109 387.993V384.164C405.075 382.362 404.341 380.645 403.064 379.382C401.788 378.12 400.07 377.412 398.281 377.412C396.492 377.412 394.775 378.12 393.498 379.382C392.222 380.645 391.487 382.362 391.454 384.164V387.993C391.452 389.276 391.808 390.534 392.479 391.624C393.151 392.714 394.112 393.593 395.254 394.161V396.999C395.254 397.473 395.067 397.928 394.734 398.263C394.402 398.598 393.951 398.786 393.48 398.786H392.69C386.184 398.786 380.724 402.955 379.63 411.446L379.505 411.531C378.511 410.078 377.979 408.355 377.982 406.59V368.986H419.084Z" fill="#F7CEDC"/>
<path d="M419.085 367.741V368.986H379.428V368.08C379.428 357.397 385.397 352.177 392.681 352.177H393.471C393.942 352.176 394.393 351.987 394.725 351.652C395.058 351.316 395.245 350.861 395.245 350.387V347.558C394.103 346.99 393.142 346.111 392.47 345.02C391.799 343.93 391.443 342.672 391.445 341.389V337.559C391.428 336.645 391.592 335.737 391.927 334.887C392.263 334.037 392.763 333.263 393.399 332.61C394.034 331.958 394.793 331.439 395.629 331.085C396.466 330.731 397.365 330.549 398.272 330.549C399.18 330.549 400.078 330.731 400.915 331.085C401.752 331.439 402.51 331.958 403.146 332.61C403.782 333.263 404.282 334.037 404.617 334.887C404.953 335.737 405.117 336.645 405.1 337.559V341.396C405.099 342.68 404.743 343.938 404.07 345.028C403.397 346.119 402.435 346.998 401.293 347.566V350.38C401.294 350.854 401.481 351.308 401.813 351.643C402.146 351.978 402.596 352.167 403.066 352.169C405.098 352.099 407.121 352.456 409.008 353.218C410.895 353.98 412.603 355.129 414.025 356.594C415.446 358.058 416.548 359.805 417.262 361.723C417.975 363.641 418.284 365.688 418.169 367.733L419.085 367.741Z" fill="#006B99"/>
<path d="M419.085 321.986V322.957H379.428V322.328C379.428 311.644 385.397 306.424 392.681 306.424H393.471C393.941 306.423 394.392 306.235 394.725 305.9C395.057 305.565 395.244 305.111 395.245 304.637V301.801C394.103 301.233 393.142 300.354 392.471 299.264C391.799 298.174 391.444 296.917 391.445 295.634V291.802C391.428 290.888 391.592 289.979 391.927 289.129C392.263 288.28 392.763 287.506 393.399 286.853C394.034 286.2 394.793 285.682 395.629 285.328C396.466 284.974 397.365 284.792 398.272 284.792C399.18 284.792 400.078 284.974 400.915 285.328C401.752 285.682 402.51 286.2 403.146 286.853C403.782 287.506 404.282 288.28 404.617 289.129C404.953 289.979 405.117 290.888 405.1 291.802V295.634C405.099 296.917 404.743 298.175 404.07 299.265C403.397 300.355 402.435 301.233 401.293 301.801V304.632C401.293 305.106 401.48 305.56 401.813 305.895C402.145 306.23 402.596 306.419 403.066 306.419C405.098 306.349 407.122 306.706 409.009 307.468C410.896 308.23 412.604 309.38 414.026 310.845C415.447 312.31 416.549 314.057 417.263 315.975C417.976 317.893 418.285 319.94 418.169 321.986H419.085Z" fill="#006B99"/>
<path d="M408.9 242.199L408.598 242.801L397.399 254.747C397.224 254.937 397.011 255.089 396.776 255.192C396.54 255.296 396.285 255.35 396.028 255.35C395.633 255.35 395.248 255.226 394.927 254.995C394.713 254.839 394.535 254.64 394.403 254.41C394.272 254.179 394.19 253.924 394.164 253.659C394.138 253.395 394.168 253.128 394.251 252.876C394.335 252.624 394.471 252.393 394.65 252.198L406.656 239.402L406.589 239.217C406.977 239.072 407.413 238.894 407.876 238.708C407.76 238.894 406.059 241.488 408.9 242.199Z" fill="#006B99"/>
<path d="M366 159.949L372.339 163.127C371.113 166.997 366.009 165.728 366.009 165.728L366 159.949Z" fill="#FFCEB6"/>
<path d="M369.573 284.142V311.31H358.188V311.028L350.427 301.802C351.975 298.175 352.8 294.277 352.856 290.329C352.856 285.745 349.863 280.024 347.28 275.933L358.188 268.311L369.573 284.142Z" fill="#FFCEB6"/>
<path d="M345.01 152.162V247.505L344.892 247.748C343.294 247.022 341.614 246.496 339.89 246.182L339.964 245.801V152.162H345.01Z" fill="#CCEFF6"/>
<path d="M327.427 225.092C328.798 227.845 327.276 231.847 324.384 232.211C323.358 232.355 322.312 232.186 321.382 231.725C322.574 229.946 323.484 227.99 324.081 225.929C324.435 225.072 325.013 224.14 325.577 222.955C326.378 223.481 327.018 224.221 327.427 225.092Z" fill="#006B99"/>
<path d="M317.815 242.86L327.107 245.81C327.107 245.81 321.996 251.504 308.213 252.249C299.57 252.538 291.028 250.301 283.617 245.81L295.322 240.937L287.73 233.007C287.781 233.007 286.73 224.557 286.781 224.55C288.226 224.363 298.409 233.473 299.24 232.269L301.496 232.793C303.707 234.322 306.125 235.521 308.676 236.353L308.76 236.38C309.5 236.659 315.066 238.718 317.596 239.497H317.642L317.666 239.963L317.815 242.86Z" fill="#FFCEB6"/>
<path d="M321.162 224.016C320.895 224.208 320.611 224.376 320.314 224.516C320.314 224.516 317.423 223.88 316.36 223.787C315.512 223.712 310.702 223.95 308.852 224.059C308.399 224.076 308.129 224.093 308.129 224.093C309.332 225.131 310.602 226.088 311.929 226.958C312.641 227.484 313.463 227.837 314.332 227.99C315.202 228.143 316.094 228.092 316.941 227.84C318.522 226.774 319.943 225.487 321.162 224.016ZM284.687 212.069C286.005 210.613 287.838 211.416 289.024 212.23C290.242 213.118 291.719 213.571 293.221 213.517C301.141 212.992 302.814 201.07 303.31 196.833C303.31 196.833 314.167 198.018 317.673 199.764C318.008 199.934 318.346 200.121 318.673 200.308C322.115 202.345 324.659 205.626 325.789 209.484L325.704 209.726C325.485 210.362 325.292 210.785 325.292 210.785C326.327 213.024 326.712 215.512 326.401 217.962C326.084 219.774 325.521 221.533 324.728 223.19C323.979 224.793 323.189 226.045 322.719 227.199C321.913 229.97 320.687 232.599 319.085 234.993C318.615 235.558 318.049 236.035 317.413 236.401C316.81 236.745 316.148 236.972 315.461 237.069C313.578 237.29 311.669 237.155 309.835 236.671C309.483 236.586 309.112 236.493 308.768 236.384L308.683 236.357C306.133 235.524 303.714 234.326 301.503 232.798L297.568 232.273C298.334 231.331 298.798 230.176 298.899 228.962C298.999 227.749 298.732 226.532 298.132 225.475C296.686 223.188 295.643 222.272 291.975 223.909C291.089 224.372 290.358 225.088 289.874 225.968L289.621 227.119C287.159 225.689 281.67 218.215 284.022 213.131C284.184 212.742 284.408 212.384 284.687 212.069V212.069Z" fill="#FFCEB6"/>
<path d="M303.293 196.79C303.298 196.804 303.298 196.819 303.293 196.833C302.773 201.384 300.872 214.772 291.378 213.442C290.709 213.343 290.079 213.064 289.554 212.635C288.46 211.754 286.224 210.348 284.677 212.07C284.399 212.385 284.171 212.742 284.002 213.128C281.648 218.213 286.072 222.382 288.535 223.812L290.52 225.186C290.081 225.94 289.838 226.794 289.815 227.668C289.791 228.542 289.987 229.408 290.385 230.186C291.419 233.126 293.79 232.793 295.6 232.837L295.313 240.937L283.607 245.81C278.494 246.675 273.532 248.284 268.878 250.586C264.514 238.368 278.875 218.193 282.87 206.322C283.289 205.084 282.776 196.018 289.361 188.537C292.698 185.826 296.607 183.921 300.787 182.969C301.269 182.843 301.732 182.73 302.175 182.632C306.548 181.804 311.069 182.408 315.077 184.354C319.085 186.301 322.37 189.489 324.451 193.451C330.085 205.019 325.779 209.476 325.779 209.476C324.65 205.619 322.107 202.338 318.666 200.301C315.677 197.815 312.142 196.086 308.356 195.258C303.185 194.418 303.259 196.494 303.293 196.79Z" fill="#006B99"/>
<path d="M318.667 200.308C318.339 200.121 318.002 199.934 317.665 199.764C314.159 198.018 303.304 196.833 303.304 196.833C303.308 196.819 303.308 196.804 303.304 196.79C303.27 196.493 303.195 194.417 308.364 195.265C312.148 196.095 315.68 197.824 318.667 200.308V200.308Z" fill="#006B99"/>
<path d="M317.481 236.53L317.64 239.497H317.596C315.066 238.717 309.5 236.658 308.76 236.379C309.112 236.488 309.483 236.581 309.828 236.666C311.662 237.15 313.57 237.285 315.454 237.064C316.14 236.967 316.801 236.74 317.403 236.396L317.481 236.53Z" fill="#006B99"/>
<path d="M295.155 232.421C294.059 232.553 292.952 232.289 292.031 231.676C291.111 231.063 290.436 230.141 290.126 229.073C289.902 228.436 289.821 227.757 289.892 227.084C289.962 226.412 290.18 225.764 290.531 225.188C290.868 224.619 291.374 224.172 291.977 223.909C292.497 223.6 293.077 223.405 293.678 223.338C294.279 223.272 294.887 223.334 295.462 223.521C296.037 223.708 296.566 224.016 297.014 224.425C297.463 224.833 297.82 225.332 298.063 225.89C298.426 226.688 298.577 227.567 298.504 228.441C298.431 229.316 298.134 230.157 297.644 230.882C297.38 231.293 297.031 231.642 296.623 231.906C296.214 232.17 295.754 232.343 295.273 232.414C295.234 232.412 295.198 232.421 295.155 232.421Z" fill="#CCEFF6"/>
<path d="M283.617 287.218L282.877 311.31H258.459V286.211L283.617 287.218Z" fill="#FFCEB6"/>
<path d="M271.324 143.231C271.915 143.23 272.494 143.406 272.987 143.737C273.479 144.068 273.863 144.538 274.09 145.089C274.317 145.64 274.377 146.246 274.261 146.831C274.146 147.416 273.861 147.953 273.443 148.375C273.024 148.797 272.491 149.084 271.911 149.2C271.33 149.316 270.728 149.256 270.182 149.027C269.635 148.799 269.168 148.412 268.84 147.915C268.512 147.419 268.337 146.836 268.338 146.24C268.339 145.442 268.654 144.677 269.213 144.113C269.773 143.549 270.532 143.232 271.324 143.231V143.231Z" fill="#FFCEB6"/>
<path d="M259.553 143.231C260.145 143.23 260.724 143.406 261.216 143.737C261.709 144.068 262.093 144.538 262.319 145.089C262.546 145.64 262.606 146.246 262.491 146.831C262.376 147.416 262.091 147.953 261.672 148.375C261.254 148.797 260.72 149.084 260.14 149.2C259.559 149.316 258.958 149.256 258.411 149.027C257.865 148.799 257.398 148.412 257.069 147.915C256.741 147.419 256.567 146.836 256.568 146.24C256.568 145.442 256.883 144.677 257.443 144.113C258.002 143.549 258.761 143.232 259.553 143.231V143.231Z" fill="#CCEFF6"/>
<path d="M571.878 422.285C570.19 423.275 568.272 423.796 566.319 423.793H380.613C379.163 423.794 377.727 423.507 376.387 422.948C375.047 422.389 373.83 421.57 372.804 420.537C371.779 419.503 370.966 418.277 370.411 416.926C369.857 415.576 369.572 414.129 369.573 412.668V279.442C369.573 276.49 370.736 273.66 372.806 271.573C374.876 269.486 377.685 268.313 380.613 268.311H566.319C567.77 268.311 569.207 268.598 570.548 269.158C571.889 269.717 573.108 270.537 574.134 271.571C575.16 272.605 575.974 273.833 576.529 275.184C577.084 276.536 577.37 277.984 577.369 279.446V412.673C577.368 414.619 576.861 416.531 575.897 418.218C574.934 419.905 573.548 421.307 571.878 422.285Z" stroke="#006B99" stroke-width="3.23435" stroke-linecap="round" stroke-linejoin="round"/>
<path d="M419.084 415.319H386.649C384.349 415.319 382.142 414.398 380.516 412.758C378.889 411.119 377.975 408.896 377.975 406.577V285.516C377.975 283.198 378.889 280.974 380.516 279.335C382.142 277.696 384.349 276.775 386.649 276.775H560.283C562.584 276.775 564.79 277.696 566.417 279.335C568.044 280.974 568.958 283.198 568.958 285.516V406.582C568.958 408.901 568.044 411.124 566.417 412.763C564.79 414.402 562.584 415.323 560.283 415.323H419.084V415.319Z" stroke="#006B99" stroke-width="3.23435" stroke-linecap="round" stroke-linejoin="round"/>
<path d="M462.589 273.255H476.909" stroke="#006B99" stroke-width="3.23435" stroke-linecap="round" stroke-linejoin="round"/>
<path d="M419.081 276.781V321.986V322.953V367.741V368.987V414.346V415.319" stroke="#006B99" stroke-width="3.23435" stroke-linecap="round" stroke-linejoin="round"/>
<path d="M528.396 276.781V321.986V322.953V367.741V368.987V414.346V415.319" stroke="#006B99" stroke-width="3.23435" stroke-linecap="round" stroke-linejoin="round"/>
<path d="M377.98 322.952H379.428H419.082" stroke="#006B99" stroke-width="3.23435" stroke-linecap="round" stroke-linejoin="round"/>
<path d="M377.98 368.986H379.428H419.082" stroke="#006B99" stroke-width="3.23435" stroke-linecap="round" stroke-linejoin="round"/>
<path d="M418.176 321.986C418.29 319.942 417.98 317.896 417.266 315.979C416.552 314.063 415.449 312.317 414.028 310.853C412.607 309.39 410.899 308.241 409.013 307.48C407.127 306.718 405.104 306.362 403.073 306.432C402.603 306.431 402.152 306.243 401.82 305.908C401.488 305.573 401.3 305.119 401.3 304.645V301.802C402.442 301.234 403.404 300.355 404.077 299.265C404.75 298.176 405.107 296.918 405.107 295.634V291.803C405.073 290 404.339 288.283 403.063 287.021C401.786 285.758 400.068 285.051 398.279 285.051C396.491 285.051 394.773 285.758 393.496 287.021C392.22 288.283 391.486 290 391.452 291.803V295.634C391.451 296.917 391.807 298.175 392.478 299.265C393.15 300.354 394.111 301.233 395.252 301.802V304.633C395.251 305.106 395.064 305.561 394.732 305.896C394.399 306.231 393.949 306.419 393.478 306.42H392.688C385.397 306.42 379.436 311.647 379.436 322.324" stroke="#006B99" stroke-width="3.23435" stroke-linecap="round" stroke-linejoin="round"/>
<path d="M418.176 367.741C418.291 365.696 417.982 363.649 417.268 361.731C416.555 359.813 415.452 358.066 414.031 356.601C412.61 355.137 410.902 353.987 409.015 353.225C407.128 352.463 405.104 352.106 403.073 352.177C402.602 352.175 402.152 351.985 401.82 351.65C401.488 351.315 401.3 350.861 401.299 350.387V347.558C402.441 346.991 403.403 346.114 404.076 345.025C404.749 343.936 405.107 342.679 405.109 341.396V337.56C405.075 335.757 404.341 334.04 403.064 332.778C401.787 331.515 400.07 330.808 398.281 330.808C396.492 330.808 394.775 331.515 393.498 332.778C392.221 334.04 391.487 335.757 391.454 337.56V341.396C391.452 342.679 391.808 343.937 392.479 345.028C393.151 346.118 394.112 346.997 395.254 347.566V350.38C395.254 350.854 395.067 351.309 394.734 351.644C394.402 351.98 393.951 352.169 393.48 352.169H392.69C385.399 352.169 379.437 357.397 379.437 368.073" stroke="#006B99" stroke-width="3.23435" stroke-linecap="round" stroke-linejoin="round"/>
<path d="M418.175 414.345C418.291 412.3 417.982 410.253 417.269 408.335C416.556 406.416 415.453 404.669 414.032 403.204C412.611 401.739 410.902 400.589 409.015 399.827C407.128 399.065 405.104 398.708 403.072 398.779C402.602 398.778 402.151 398.59 401.819 398.255C401.487 397.92 401.3 397.465 401.299 396.992V394.16C402.441 393.593 403.404 392.715 404.076 391.625C404.749 390.535 405.106 389.277 405.106 387.993V384.164C405.072 382.362 404.338 380.645 403.062 379.382C401.785 378.119 400.067 377.412 398.279 377.412C396.49 377.412 394.772 378.119 393.495 379.382C392.219 380.645 391.485 382.362 391.451 384.164V387.993C391.45 389.276 391.805 390.534 392.476 391.624C393.148 392.714 394.109 393.593 395.251 394.16V396.999C395.251 397.473 395.064 397.927 394.731 398.263C394.399 398.598 393.948 398.786 393.477 398.786H392.687C386.181 398.786 380.721 402.955 379.627 411.446" stroke="#006B99" stroke-width="3.23435" stroke-linecap="round" stroke-linejoin="round"/>
<path d="M568.961 322.952H567.312H528.497" stroke="#006B99" stroke-width="3.23435" stroke-linecap="round" stroke-linejoin="round"/>
<path d="M568.961 368.986H567.312H528.497" stroke="#006B99" stroke-width="3.23435" stroke-linecap="round" stroke-linejoin="round"/>
<path d="M528.564 321.986C528.449 319.942 528.759 317.897 529.472 315.981C530.186 314.065 531.288 312.319 532.708 310.856C534.128 309.392 535.835 308.243 537.72 307.481C539.605 306.72 541.627 306.362 543.657 306.431C544.13 306.43 544.583 306.242 544.92 305.907C545.252 305.572 545.439 305.118 545.44 304.644V301.801C544.297 301.234 543.335 300.355 542.662 299.265C541.989 298.175 541.632 296.918 541.631 295.634V291.802C541.631 289.977 542.35 288.227 543.631 286.937C544.911 285.646 546.648 284.921 548.459 284.921C550.27 284.921 552.007 285.646 553.288 286.937C554.569 288.227 555.288 289.977 555.288 291.802V295.634C555.287 296.918 554.93 298.175 554.257 299.265C553.583 300.355 552.621 301.234 551.478 301.801V304.632C551.48 305.107 551.669 305.562 552.003 305.897C552.338 306.232 552.79 306.42 553.262 306.419H554.042C561.341 306.419 567.312 311.647 567.312 322.323" stroke="#006B99" stroke-width="3.23435" stroke-linecap="round" stroke-linejoin="round"/>
<path d="M528.564 367.74C528.449 365.696 528.757 363.65 529.47 361.732C530.183 359.815 531.284 358.068 532.705 356.604C534.125 355.14 535.832 353.989 537.718 353.227C539.604 352.465 541.627 352.107 543.658 352.176C544.131 352.176 544.585 351.986 544.92 351.649C545.253 351.315 545.44 350.861 545.441 350.387V347.558C544.298 346.99 543.335 346.112 542.662 345.021C541.989 343.931 541.632 342.673 541.631 341.388V337.559C541.631 335.734 542.351 333.984 543.631 332.694C544.912 331.403 546.649 330.678 548.46 330.678C550.271 330.678 552.008 331.403 553.288 332.694C554.569 333.984 555.288 335.734 555.288 337.559V341.396C555.288 342.68 554.931 343.938 554.258 345.029C553.585 346.119 552.622 346.998 551.479 347.565V350.38C551.481 350.855 551.67 351.31 552.004 351.645C552.338 351.981 552.79 352.169 553.262 352.169H554.043C561.341 352.169 567.312 357.397 567.312 368.073" stroke="#006B99" stroke-width="3.23435" stroke-linecap="round" stroke-linejoin="round"/>
<path d="M528.564 414.345C528.448 412.301 528.757 410.254 529.469 408.337C530.182 406.419 531.284 404.672 532.704 403.207C534.124 401.742 535.832 400.592 537.718 399.83C539.604 399.067 541.627 398.709 543.658 398.779C543.891 398.78 544.123 398.734 544.339 398.645C544.555 398.555 544.752 398.424 544.917 398.258C545.083 398.092 545.214 397.895 545.304 397.677C545.394 397.46 545.44 397.227 545.441 396.992V394.161C544.298 393.593 543.335 392.715 542.662 391.625C541.989 390.535 541.632 389.277 541.631 387.993V384.164C541.631 382.339 542.351 380.589 543.631 379.298C544.912 378.008 546.649 377.283 548.46 377.283C550.271 377.283 552.008 378.008 553.289 379.298C554.569 380.589 555.289 382.339 555.289 384.164V387.993C555.288 389.277 554.931 390.535 554.258 391.625C553.584 392.715 552.622 393.593 551.479 394.161V396.999C551.481 397.474 551.67 397.929 552.004 398.264C552.338 398.599 552.791 398.787 553.262 398.786H554.043C560.549 398.786 566.016 402.955 567.11 411.446" stroke="#006B99" stroke-width="3.23435" stroke-linecap="round" stroke-linejoin="round"/>
<path d="M528.396 268.306V237.741V224.838H708.721V237.741V346.05H577.37" stroke="#006B99" stroke-width="3.23435" stroke-linecap="round" stroke-linejoin="round"/>
<path d="M528.396 237.741H708.721" stroke="#006B99" stroke-width="3.23435" stroke-linecap="round" stroke-linejoin="round"/>
<path d="M540.043 231.82C540.044 232.416 539.87 232.999 539.542 233.495C539.214 233.991 538.748 234.378 538.201 234.607C537.655 234.836 537.054 234.896 536.474 234.781C535.893 234.665 535.36 234.379 534.941 233.958C534.523 233.537 534.237 233 534.121 232.416C534.005 231.831 534.064 231.225 534.289 230.674C534.515 230.123 534.898 229.652 535.39 229.321C535.881 228.989 536.459 228.812 537.051 228.811C537.443 228.811 537.832 228.888 538.195 229.039C538.558 229.19 538.888 229.411 539.166 229.691C539.444 229.97 539.664 230.302 539.815 230.667C539.965 231.032 540.043 231.424 540.043 231.82V231.82Z" stroke="#006B99" stroke-width="3.23435" stroke-linecap="round" stroke-linejoin="round"/>
<path d="M551.807 231.82C551.808 232.416 551.633 232.998 551.306 233.495C550.978 233.991 550.512 234.378 549.965 234.607C549.419 234.835 548.818 234.896 548.238 234.781C547.658 234.665 547.125 234.379 546.706 233.959C546.287 233.538 546.001 233.001 545.885 232.417C545.769 231.833 545.827 231.227 546.052 230.676C546.278 230.125 546.66 229.654 547.151 229.322C547.643 228.99 548.22 228.812 548.812 228.811C549.205 228.81 549.594 228.887 549.957 229.038C550.32 229.189 550.65 229.41 550.928 229.69C551.207 229.969 551.427 230.301 551.578 230.667C551.729 231.032 551.807 231.424 551.807 231.82V231.82Z" stroke="#006B99" stroke-width="3.23435" stroke-linecap="round" stroke-linejoin="round"/>
<path d="M563.578 231.82C563.579 232.416 563.404 232.999 563.076 233.495C562.748 233.991 562.282 234.378 561.736 234.607C561.19 234.836 560.588 234.896 560.008 234.781C559.428 234.665 558.894 234.379 558.476 233.958C558.057 233.537 557.771 233 557.655 232.416C557.539 231.831 557.598 231.225 557.824 230.674C558.05 230.123 558.432 229.652 558.924 229.321C559.415 228.989 559.994 228.812 560.585 228.811C560.978 228.81 561.367 228.887 561.73 229.038C562.093 229.189 562.423 229.41 562.701 229.69C562.979 229.969 563.199 230.301 563.35 230.667C563.5 231.032 563.578 231.424 563.578 231.82V231.82Z" stroke="#006B99" stroke-width="3.23435" stroke-linecap="round" stroke-linejoin="round"/>
<path d="M369.572 311.31H358.187H345.01H282.877H258.459H250.907V152.161V139.256H498.502V152.161V268.306" stroke="#006B99" stroke-width="3.23435" stroke-linecap="round" stroke-linejoin="round"/>
<path d="M250.907 152.162H339.964H345.01H498.502" stroke="#006B99" stroke-width="3.23435" stroke-linecap="round" stroke-linejoin="round"/>
<path d="M262.546 146.24C262.547 146.836 262.372 147.419 262.045 147.915C261.717 148.411 261.25 148.798 260.704 149.027C260.158 149.256 259.557 149.316 258.976 149.201C258.396 149.085 257.863 148.799 257.444 148.378C257.025 147.957 256.74 147.42 256.624 146.836C256.508 146.251 256.566 145.645 256.792 145.094C257.018 144.543 257.401 144.072 257.892 143.741C258.384 143.409 258.962 143.232 259.553 143.231C260.346 143.231 261.106 143.547 261.668 144.111C262.229 144.675 262.545 145.441 262.546 146.24V146.24Z" stroke="#006B99" stroke-width="3.23435" stroke-linecap="round" stroke-linejoin="round"/>
<path d="M274.319 146.24C274.32 146.836 274.145 147.418 273.817 147.914C273.49 148.411 273.023 148.798 272.477 149.026C271.931 149.255 271.33 149.316 270.75 149.201C270.17 149.085 269.636 148.799 269.217 148.379C268.799 147.958 268.513 147.421 268.397 146.837C268.28 146.253 268.338 145.647 268.564 145.096C268.789 144.545 269.172 144.074 269.663 143.742C270.154 143.41 270.732 143.232 271.324 143.231C271.716 143.231 272.105 143.308 272.468 143.459C272.831 143.61 273.161 143.831 273.439 144.11C273.718 144.39 273.938 144.722 274.089 145.087C274.24 145.452 274.318 145.844 274.319 146.24Z" stroke="#006B99" stroke-width="3.23435" stroke-linecap="round" stroke-linejoin="round"/>
<path d="M286.089 146.24C286.09 146.836 285.916 147.419 285.588 147.915C285.26 148.411 284.794 148.798 284.247 149.027C283.701 149.256 283.1 149.316 282.52 149.201C281.939 149.085 281.406 148.799 280.987 148.378C280.569 147.957 280.283 147.42 280.167 146.836C280.051 146.251 280.11 145.645 280.335 145.094C280.561 144.543 280.944 144.072 281.436 143.741C281.927 143.409 282.505 143.232 283.097 143.231C283.889 143.231 284.65 143.547 285.211 144.111C285.772 144.675 286.088 145.441 286.089 146.24Z" stroke="#006B99" stroke-width="3.23435" stroke-linecap="round" stroke-linejoin="round"/>
<path d="M451.247 476.609L377.224 423.793V426.707C377.223 428.689 377.695 430.643 378.599 432.404C379.504 434.164 380.814 435.68 382.421 436.824L470.369 499.578C474.035 502.187 478.411 503.59 482.899 503.594H663.887C665.053 503.595 666.208 503.364 667.286 502.914C668.364 502.465 669.343 501.806 670.168 500.975C670.993 500.144 671.647 499.158 672.093 498.072C672.539 496.986 672.769 495.822 672.769 494.647V494.273" stroke="#006B99" stroke-width="3.23435" stroke-linecap="round" stroke-linejoin="round"/>
<path d="M571.878 422.285L672.756 494.265H475.993" stroke="#006B99" stroke-width="3.23435" stroke-linecap="round" stroke-linejoin="round"/>
<path d="M556.792 259.706H680.317" stroke="#006B99" stroke-width="3.23435" stroke-linecap="round" stroke-linejoin="round"/>
<path d="M578.655 287.667H680.316" stroke="#006B99" stroke-width="3.23435" stroke-linecap="round" stroke-linejoin="round"/>
<path d="M578.655 315.629H680.316" stroke="#006B99" stroke-width="3.23435" stroke-linecap="round" stroke-linejoin="round"/>
<path d="M322.844 388.248H363.744" stroke="#006B99" stroke-width="3.23435" stroke-linecap="round" stroke-linejoin="round"/>
<path d="M583.516 388.248H641.231" stroke="#006B99" stroke-width="3.23435" stroke-linecap="round" stroke-linejoin="round"/>
<path d="M451.248 476.608L475.994 494.265V502.239" stroke="#006B99" stroke-width="3.23435" stroke-linecap="round" stroke-linejoin="round"/>
<path d="M522.241 487.488L503.095 473.828H579.892" stroke="#F7CEDC" stroke-width="3.23435" stroke-linecap="round" stroke-linejoin="round"/>
<path d="M580.086 473.828L599.232 487.488H522.435" stroke="#006B99" stroke-width="3.23435" stroke-linecap="round" stroke-linejoin="round"/>
<path d="M618.53 467.185H565.604H458.765L422.523 441.323L408.682 431.443H467.543H568.447L602.981 456.093L618.53 467.185Z" stroke="#006B99" stroke-width="3.23435" stroke-linecap="round" stroke-linejoin="round"/>
<path d="M422.522 441.323H481.382H560.601" stroke="#006B99" stroke-width="3.23435" stroke-linecap="round" stroke-linejoin="round"/>
<path d="M464.566 456.577H551.175H602.645" stroke="#006B99" stroke-width="3.23435" stroke-linecap="round" stroke-linejoin="round"/>
<path d="M467.544 431.443L481.384 441.323L495.812 451.621" stroke="#006B99" stroke-width="3.23435" stroke-linecap="round" stroke-linejoin="round"/>
<path d="M537.336 446.697L551.176 456.576L565.604 466.871" stroke="#006B99" stroke-width="3.23435" stroke-linecap="round" stroke-linejoin="round"/>
<path d="M493.466 358.392C495.762 358.393 498.034 358.849 500.155 359.734C502.275 360.62 504.202 361.917 505.824 363.553C507.447 365.189 508.734 367.131 509.612 369.268C510.489 371.405 510.941 373.695 510.94 376.008C510.945 376.065 510.945 376.121 510.94 376.178C510.94 380.847 509.1 385.324 505.824 388.626C502.548 391.927 498.104 393.782 493.471 393.782C488.838 393.782 484.395 391.927 481.119 388.626C477.842 385.324 476.002 380.847 476.002 376.178C475.997 376.121 475.997 376.065 476.002 376.008C476.001 371.339 477.84 366.86 481.115 363.556C484.39 360.253 488.833 358.396 493.466 358.392V358.392Z" stroke="#006B99" stroke-width="3.23435" stroke-linecap="round" stroke-linejoin="round"/>
<path d="M493.467 347.229V358.395V376.181V393.619V403.441" stroke="#006B99" stroke-width="3.23435" stroke-linecap="round" stroke-linejoin="round"/>
<path d="M521.358 376.181H510.931H493.467H476.003H465.574" stroke="#006B99" stroke-width="3.23435" stroke-linecap="round" stroke-linejoin="round"/>
<path d="M429.855 213.381C429.962 208.784 431.849 204.411 435.114 201.198C438.378 197.985 442.76 196.186 447.324 196.186C451.887 196.186 456.269 197.985 459.534 201.198C462.798 204.411 464.686 208.784 464.793 213.381C464.797 213.441 464.797 213.501 464.793 213.561C464.751 217.709 463.257 221.709 460.574 224.856C457.892 228.002 454.193 230.094 450.13 230.762C446.067 231.429 441.9 230.63 438.365 228.505C434.829 226.38 432.152 223.065 430.804 219.145" stroke="#006B99" stroke-width="3.23435" stroke-linecap="round" stroke-linejoin="round"/>
<path d="M447.329 184.605V195.774V213.56V230.989V240.818" stroke="#006B99" stroke-width="3.23435" stroke-linecap="round" stroke-linejoin="round"/>
<path d="M430.72 213.56H429.855H419.436" stroke="#006B99" stroke-width="3.23435" stroke-linecap="round" stroke-linejoin="round"/>
<path d="M475.219 213.56H464.793H447.328H436.555" stroke="#006B99" stroke-width="3.23435" stroke-linecap="round" stroke-linejoin="round"/>
<path d="M429.382 306.682V318.062L457.039 314.791L489.968 310.894V325.4V331.322L484.149 328.398L457.039 314.791L435.714 304.081L429.382 300.903V306.682Z" stroke="#006B99" stroke-width="3.23435" stroke-linecap="round" stroke-linejoin="round"/>
<path d="M429.382 306.675C429.382 306.675 434.478 307.947 435.714 304.074" stroke="#006B99" stroke-width="3.23435" stroke-linecap="round" stroke-linejoin="round"/>
<path d="M484.142 328.399C484.741 327.405 485.602 326.598 486.63 326.069C487.657 325.54 488.81 325.308 489.961 325.4" stroke="#006B99" stroke-width="3.23435" stroke-linecap="round" stroke-linejoin="round"/>
<path d="M366 165.728V177.115L393.664 173.837L426.583 169.938V184.446V190.368L420.764 187.444L393.664 173.837L372.33 163.127L366 159.949V165.728Z" stroke="#006B99" stroke-width="3.23435" stroke-linecap="round" stroke-linejoin="round"/>
<path d="M366 165.727C366 165.727 371.103 166.997 372.33 163.126" stroke="#006B99" stroke-width="3.23435" stroke-linecap="round" stroke-linejoin="round"/>
<path d="M420.772 187.456C421.371 186.462 422.232 185.656 423.26 185.126C424.287 184.597 425.44 184.365 426.591 184.458" stroke="#006B99" stroke-width="3.23435" stroke-linecap="round" stroke-linejoin="round"/>
<path d="M465.539 367.886H445.039V359.412V347.228H457.133H465.539V367.886Z" stroke="#006B99" stroke-width="3.23435" stroke-linecap="round" stroke-linejoin="round"/>
<path d="M457.134 359.412H445.04H436.633V338.754H457.134V347.228V359.412Z" stroke="#006B99" stroke-width="3.23435" stroke-linecap="round" stroke-linejoin="round"/>
<path d="M436.633 338.754L445.04 347.228" stroke="#006B99" stroke-width="3.23435" stroke-linecap="round" stroke-linejoin="round"/>
<path d="M457.134 338.754L465.541 347.228" stroke="#006B99" stroke-width="3.23435" stroke-linecap="round" stroke-linejoin="round"/>
<path d="M457.134 359.412L465.541 367.886" stroke="#006B99" stroke-width="3.23435" stroke-linecap="round" stroke-linejoin="round"/>
<path d="M436.633 359.412L445.04 367.886" stroke="#006B99" stroke-width="3.23435" stroke-linecap="round" stroke-linejoin="round"/>
<path d="M389.878 234.685H369.377V226.211V214.027H381.471H389.878V234.685Z" stroke="#006B99" stroke-width="3.23435" stroke-linecap="round" stroke-linejoin="round"/>
<path d="M381.472 226.21H369.378H360.971V205.552H381.472V214.026V226.21Z" stroke="#006B99" stroke-width="3.23435" stroke-linecap="round" stroke-linejoin="round"/>
<path d="M360.971 205.552L369.378 214.026" stroke="#006B99" stroke-width="3.23435" stroke-linecap="round" stroke-linejoin="round"/>
<path d="M381.472 205.552L389.879 214.026" stroke="#006B99" stroke-width="3.23435" stroke-linecap="round" stroke-linejoin="round"/>
<path d="M381.472 226.21L389.879 234.684" stroke="#006B99" stroke-width="3.23435" stroke-linecap="round" stroke-linejoin="round"/>
<path d="M360.971 226.21L369.378 234.684" stroke="#006B99" stroke-width="3.23435" stroke-linecap="round" stroke-linejoin="round"/>
<path d="M435.792 394.314C435.792 394.314 432.351 395.722 432.178 398.179C432.004 400.636 435.146 400.644 436.541 399.238C436.593 397.561 436.418 395.885 436.021 394.255C435.878 393.694 435.672 393.15 435.406 392.636C434.103 390.179 431.917 390.526 431.134 392.196" stroke="#006B99" stroke-width="3.23435" stroke-linecap="round" stroke-linejoin="round"/>
<path d="M502.322 292.592C502.322 292.592 498.881 293.998 498.708 296.464C498.534 298.931 501.676 298.931 503.072 297.523C503.123 295.844 502.948 294.165 502.551 292.533C502.41 291.974 502.204 291.434 501.937 290.924C500.633 288.457 498.448 288.814 497.665 290.482" stroke="#006B99" stroke-width="3.23435" stroke-linecap="round" stroke-linejoin="round"/>
<path d="M440.834 393.619H445.039" stroke="#006B99" stroke-width="3.23435" stroke-linecap="round" stroke-linejoin="round"/>
<path d="M440.834 397.009H445.039" stroke="#006B99" stroke-width="3.23435" stroke-linecap="round" stroke-linejoin="round"/>
<path d="M448.963 392.56C449.173 389.889 455.498 389.841 454.279 394.466C453.445 397.611 449.089 400.187 449.089 400.187H456.221" stroke="#006B99" stroke-width="3.23435" stroke-linecap="round" stroke-linejoin="round"/>
<path d="M478.045 290.7C478.262 288.041 484.587 287.981 483.346 292.599C482.515 295.755 478.166 298.327 478.166 298.327H485.289" stroke="#006B99" stroke-width="3.23435" stroke-linecap="round" stroke-linejoin="round"/>
<path d="M463.473 287.279C463.615 285.49 467.863 285.456 467.039 288.559C466.482 290.659 463.564 292.395 463.564 292.395H468.34" stroke="#006B99" stroke-width="3.23435" stroke-linecap="round" stroke-linejoin="round"/>
<path d="M460.866 398.635C463.758 402.008 468.174 399.881 466.676 396.45C465.177 393.019 461.136 395.474 460.866 398.635Z" stroke="#006B99" stroke-width="3.23435" stroke-linecap="round" stroke-linejoin="round"/>
<path d="M463.523 389.324C461.791 391.179 457.981 395.255 460.873 398.635" stroke="#006B99" stroke-width="3.23435" stroke-linecap="round" stroke-linejoin="round"/>
<path d="M490.951 290.006V292.711V295.413" stroke="#006B99" stroke-width="3.23435" stroke-linecap="round" stroke-linejoin="round"/>
<path d="M487.959 292.71H490.952H493.728" stroke="#006B99" stroke-width="3.23435" stroke-linecap="round" stroke-linejoin="round"/>
<path d="M475.672 285.973C473.193 286.735 471.133 291.489 471.906 294.835C472.112 296.262 472.682 297.61 473.56 298.749C474.437 299.888 475.593 300.778 476.913 301.333" stroke="#006B99" stroke-width="3.23435" stroke-linecap="round" stroke-linejoin="round"/>
<path d="M504.937 285.973C507.417 286.735 509.477 291.489 508.703 294.835C508.495 296.26 507.925 297.606 507.049 298.744C506.173 299.882 505.019 300.772 503.701 301.328" stroke="#006B99" stroke-width="3.23435" stroke-linecap="round" stroke-linejoin="round"/>
<path d="M339.964 152.162V245.81" stroke="#006B99" stroke-width="3.23435" stroke-linecap="round" stroke-linejoin="round"/>
<path d="M345.01 152.162V247.505" stroke="#006B99" stroke-width="3.23435" stroke-linecap="round" stroke-linejoin="round"/>
<path d="M283.617 282.93V287.218L258.459 286.211L255.693 286.102C255.693 286.102 255.879 266.339 261.057 257.402C262.993 254.449 265.699 252.09 268.878 250.586C273.535 248.28 278.5 246.667 283.617 245.8C291.029 250.292 299.571 252.528 308.214 252.24C321.997 251.494 327.107 245.8 327.107 245.8C331.365 245.319 335.668 245.447 339.89 246.181C341.614 246.496 343.294 247.022 344.892 247.748C346.11 248.298 347.232 249.042 348.215 249.952C353.008 254.965 357.212 260.517 360.744 266.5L358.181 268.296L347.28 275.933" stroke="#006B99" stroke-width="3.23435" stroke-linecap="round" stroke-linejoin="round"/>
<path d="M258.459 286.211V311.31" stroke="#006B99" stroke-width="3.23435" stroke-linecap="round" stroke-linejoin="round"/>
<path d="M283.618 287.219L282.878 311.31" stroke="#006B99" stroke-width="3.23435" stroke-linecap="round" stroke-linejoin="round"/>
<path d="M343.571 270.645C343.571 270.645 345.304 272.815 347.28 275.933C349.863 280.024 352.848 285.745 352.855 290.329C352.8 294.277 351.975 298.175 350.426 301.802C349.064 305.12 347.24 308.227 345.01 311.028" stroke="#006B99" stroke-width="3.23435" stroke-linecap="round" stroke-linejoin="round"/>
<path d="M324.476 286.211C324.476 286.211 325.115 298.225 320.667 303.622" stroke="#006B99" stroke-width="3.23435" stroke-linecap="round" stroke-linejoin="round"/>
<path d="M322.871 212.849C322.106 212.514 321.292 212.307 320.462 212.237C319.68 212.072 318.87 212.122 318.115 212.383" stroke="#006B99" stroke-width="3.23435" stroke-linecap="round" stroke-linejoin="round"/>
<path d="M305.187 211.979C306.127 211.745 307.082 211.575 308.045 211.47C308.829 211.316 309.64 211.378 310.392 211.649" stroke="#006B99" stroke-width="3.23435" stroke-linecap="round" stroke-linejoin="round"/>
<path d="M317.018 209.609C316.694 210.298 316.53 211.052 316.537 211.814C316.544 212.576 316.723 213.326 317.059 214.009C317.556 215.687 319.146 217.474 318.867 219.059C318.587 220.645 315.688 221.278 313.99 220.812" stroke="#006B99" stroke-width="3.23435" stroke-linecap="round" stroke-linejoin="round"/>
<path d="M308.677 236.353C306.126 235.521 303.708 234.322 301.497 232.793" stroke="#006B99" stroke-width="3.23435" stroke-linecap="round" stroke-linejoin="round"/>
<path d="M324.72 223.185C323.973 224.787 323.183 226.04 322.71 227.193C321.904 229.964 320.68 232.593 319.079 234.987C318.604 235.554 318.033 236.031 317.392 236.396C316.79 236.74 316.129 236.966 315.443 237.063C313.559 237.285 311.651 237.15 309.817 236.665C309.463 236.58 309.094 236.488 308.749 236.379" stroke="#006B99" stroke-width="3.23435" stroke-linecap="round" stroke-linejoin="round"/>
<path d="M325.695 209.721C325.476 210.358 325.283 210.78 325.283 210.78C326.319 213.019 326.704 215.507 326.394 217.957C326.071 219.769 325.503 221.528 324.707 223.185" stroke="#006B99" stroke-width="3.23435" stroke-linecap="round" stroke-linejoin="round"/>
<path d="M303.068 208.942C305.187 207.609 307.676 206.999 310.166 207.204C312.889 207.67 313.041 208.619 313.058 208.661" stroke="#006B99" stroke-width="3.23435" stroke-linecap="round" stroke-linejoin="round"/>
<path d="M324.804 207.475C324.006 207.397 323.2 207.446 322.416 207.618C321.247 207.842 320.097 208.16 318.978 208.568" stroke="#006B99" stroke-width="3.23435" stroke-linecap="round" stroke-linejoin="round"/>
<path d="M321.173 224.009C320.906 224.201 320.622 224.369 320.325 224.509C319.16 225 317.913 225.263 316.65 225.281C314.018 225.167 311.406 224.76 308.862 224.067C308.315 223.931 307.937 223.824 307.812 223.795" stroke="#006B99" stroke-width="3.23435" stroke-linecap="round" stroke-linejoin="round"/>
<path d="M307.763 223.787C307.763 223.787 307.905 223.906 308.134 224.108C309.337 225.145 310.607 226.102 311.934 226.973C312.646 227.499 313.468 227.852 314.338 228.005C315.207 228.158 316.099 228.106 316.946 227.854C318.53 226.785 319.954 225.492 321.175 224.016" stroke="#006B99" stroke-width="3.23435" stroke-linecap="round" stroke-linejoin="round"/>
<path d="M317.481 236.531L317.641 239.498L317.666 239.964L317.819 242.86" stroke="#006B99" stroke-width="3.23435" stroke-linecap="round" stroke-linejoin="round"/>
<path d="M327.107 245.81L317.816 242.86" stroke="#006B99" stroke-width="3.23435" stroke-linecap="round" stroke-linejoin="round"/>
<path d="M295.609 232.837L295.322 240.937L283.617 245.81" stroke="#006B99" stroke-width="3.23435" stroke-linecap="round" stroke-linejoin="round"/>
<path d="M290.21 213.213C290.21 213.213 286.805 209.721 284.687 212.069C284.409 212.385 284.181 212.742 284.012 213.128C281.658 218.212 286.687 223.795 290.518 225.186" stroke="#006B99" stroke-width="3.23435" stroke-linecap="round" stroke-linejoin="round"/>
<path d="M284.687 212.069V212.088" stroke="#006B99" stroke-width="3.23435" stroke-linecap="round" stroke-linejoin="round"/>
<path d="M297.644 230.879C298.139 230.156 298.438 229.315 298.511 228.439C298.585 227.564 298.43 226.684 298.063 225.887C297.819 225.331 297.461 224.833 297.012 224.426C296.563 224.018 296.034 223.711 295.46 223.524C294.885 223.337 294.278 223.275 293.678 223.34C293.078 223.406 292.498 223.599 291.977 223.906C291.377 224.174 290.872 224.621 290.531 225.185C290.18 225.761 289.962 226.409 289.892 227.082C289.821 227.754 289.902 228.433 290.126 229.07C290.44 230.135 291.116 231.055 292.036 231.667C292.955 232.28 294.06 232.546 295.155 232.419C295.189 232.419 295.222 232.419 295.256 232.419C295.74 232.348 296.203 232.174 296.615 231.909C297.027 231.643 297.378 231.292 297.644 230.879V230.879Z" stroke="#006B99" stroke-width="3.23435" stroke-linecap="round" stroke-linejoin="round"/>
<path d="M321.373 231.727C322.302 232.192 323.349 232.361 324.375 232.213C327.266 231.848 328.789 227.842 327.421 225.094C327.012 224.22 326.368 223.48 325.56 222.959" stroke="#006B99" stroke-width="3.23435" stroke-linecap="round" stroke-linejoin="round"/>
<path d="M308.123 224.101C308.123 224.101 308.4 224.084 308.846 224.067C310.697 223.957 315.506 223.719 316.354 223.795C317.407 223.88 320.308 224.523 320.308 224.523" stroke="#006B99" stroke-width="3.23435" stroke-linecap="round" stroke-linejoin="round"/>
<path d="M308.677 236.353L308.761 236.38C309.501 236.659 315.067 238.718 317.597 239.497" stroke="#006B99" stroke-width="3.23435" stroke-linecap="round" stroke-linejoin="round"/>
<path d="M303.293 196.79C303.259 196.493 303.185 194.417 308.353 195.265C312.14 196.094 315.675 197.823 318.663 200.308L318.688 200.332" stroke="#006B99" stroke-width="3.23435" stroke-linecap="round" stroke-linejoin="round"/>
<path d="M293.129 189.452C293.129 189.452 302.109 188.935 303.295 196.789C303.299 196.804 303.299 196.819 303.295 196.833" stroke="#006B99" stroke-width="3.23435" stroke-linecap="round" stroke-linejoin="round"/>
<path d="M290.414 213.162C301.498 217.372 302.749 201.561 303.296 196.833C303.296 196.833 314.138 198.018 317.656 199.764C317.994 199.934 318.331 200.121 318.659 200.308C322.1 202.345 324.643 205.626 325.772 209.484C325.772 209.484 330.078 205.028 324.444 193.458C322.362 189.496 319.078 186.308 315.07 184.361C311.062 182.415 306.541 181.811 302.168 182.639C301.721 182.737 301.259 182.85 300.78 182.976C296.599 183.928 292.691 185.833 289.354 188.544C282.769 196.025 283.282 205.091 282.863 206.329C278.868 218.2 264.507 238.38 268.87 250.593" stroke="#006B99" stroke-width="3.23435" stroke-linecap="round" stroke-linejoin="round"/>
<path d="M407.875 238.7C409.387 238.121 410.82 237.349 412.137 236.403C412.518 236.108 412.84 235.743 413.087 235.328C413.235 235.099 413.329 234.84 413.36 234.569C413.391 234.298 413.36 234.023 413.268 233.767C413.176 233.51 413.025 233.279 412.829 233.091C412.633 232.903 412.396 232.763 412.137 232.684C411.765 232.58 411.378 232.54 410.993 232.565C407.436 233.144 404 234.318 400.827 236.039C400.032 236.434 399.363 237.048 398.899 237.809L391.692 251.649L383.926 268.214" stroke="#006B99" stroke-width="3.23435" stroke-linecap="round" stroke-linejoin="round"/>
<path d="M404.974 239.803C404.974 239.803 405.636 239.582 406.578 239.217C406.966 239.072 407.402 238.894 407.865 238.708" stroke="#006B99" stroke-width="3.23435" stroke-linecap="round" stroke-linejoin="round"/>
<path d="M358.187 268.306L369.572 284.142" stroke="#006B99" stroke-width="3.23435" stroke-linecap="round" stroke-linejoin="round"/>
<path d="M350.428 301.801L358.189 311.028" stroke="#006B99" stroke-width="3.23435" stroke-linecap="round" stroke-linejoin="round"/>
<path d="M402.526 268.214L406.141 260.816C408.15 260.759 410.121 260.249 411.909 259.325C413.697 258.401 415.257 257.085 416.475 255.474C421.552 249.678 422.755 245.635 420.62 244.154C418.485 242.673 414.061 244.696 412.791 247.119C411.521 249.542 412.497 252.847 418.661 248.204" stroke="#006B99" stroke-width="3.23435" stroke-linecap="round" stroke-linejoin="round"/>
<path d="M420.622 244.15C420.622 244.15 423.422 241.59 422.513 239.051C421.605 236.511 416.788 237.737 413.769 239.561C412.454 240.364 411.304 241.414 410.381 242.654C409.034 244.56 408.936 246.585 412.791 247.109" stroke="#006B99" stroke-width="3.23435" stroke-linecap="round" stroke-linejoin="round"/>
<path d="M422.512 239.055C422.512 239.055 422.917 236.482 419.486 234.522C417.19 233.209 413.363 235.37 413.363 235.37" stroke="#006B99" stroke-width="3.23435" stroke-linecap="round" stroke-linejoin="round"/>
<path d="M407.876 238.7C407.758 238.887 406.069 241.481 408.91 242.192C409.251 242.28 409.601 242.333 409.953 242.352" stroke="#006B99" stroke-width="3.23435" stroke-linecap="round" stroke-linejoin="round"/>
<path d="M420.496 230.125L430.804 219.143L436.285 213.315L441.587 207.672C441.925 207.306 442.104 206.819 442.086 206.319C442.068 205.818 441.853 205.346 441.489 205.005C441.125 204.665 440.642 204.484 440.145 204.502C439.649 204.52 439.18 204.737 438.842 205.104L430.891 213.704L416.898 228.828" stroke="#006B99" stroke-width="3.23435" stroke-linecap="round" stroke-linejoin="round"/>
<path d="M406.647 239.402L394.64 252.198C394.462 252.393 394.326 252.624 394.242 252.876C394.159 253.128 394.129 253.395 394.155 253.659C394.181 253.923 394.263 254.179 394.394 254.409C394.526 254.64 394.704 254.839 394.917 254.995C395.239 255.226 395.624 255.35 396.019 255.349C396.276 255.349 396.531 255.296 396.766 255.192C397.002 255.089 397.214 254.937 397.39 254.747L408.599 242.801" stroke="#006B99" stroke-width="3.23435" stroke-linecap="round" stroke-linejoin="round"/>
<path d="M419.488 234.522C419.488 234.522 421.463 232.04 419.89 230.21C419.654 229.948 419.382 229.723 419.083 229.539C418.424 229.12 417.668 228.881 416.89 228.845C415.677 228.917 414.502 229.295 413.472 229.943C412.442 230.592 411.59 231.491 410.994 232.557" stroke="#006B99" stroke-width="3.23435" stroke-linecap="round" stroke-linejoin="round"/>
</svg>
